<?xml version="1.0" encoding="UTF-8"?>
<svg id="Layer_2" data-name="Layer 2" xmlns="http://www.w3.org/2000/svg" viewBox="0 0 164.94 44.76">
  <defs>
    <style>
      .cls-1 {
        fill: #0979bc;
        font-family: SFPro-Medium, 'SF Pro';
        font-variation-settings: 'opsz' 28, 'wght' 510;
        font-weight: 500;
      }

      .cls-2 {
        fill: none;
        stroke: #b5d334;
        stroke-miterlimit: 10;
      }

      .cls-3 {
        fill: #fff200;
      }

      .cls-4, .cls-5, .cls-6 {
        fill: #3d955e;
        font-family: SFPro-Heavy, 'SF Pro';
        font-variation-settings: 'opsz' 28, 'wght' 860;
      }

      .cls-4, .cls-5, .cls-6, .cls-7 {
        font-weight: 800;
      }

      .cls-8 {
        fill: #4abeea;
      }

      .cls-5 {
        letter-spacing: -.02em;
      }

      .cls-6 {
        letter-spacing: -.01em;
      }

      .cls-9 {
        font-size: 17px;
      }

      .cls-10 {
        fill: #45beed;
      }

      .cls-7 {
        font-family: SFPro-Black, 'SF Pro';
        font-variation-settings: 'opsz' 28, 'wght' 1000;
      }

      .cls-11 {
        fill: #4ebe4b;
      }
    </style>
  </defs>
  <g>
    <line class="cls-2" x1="37.72" y1="21.64" x2="37.52" y2="21.64"/>
    <line class="cls-2" x1="37.72" y1="24.74" x2="37.41" y2="24.74"/>
    <path class="cls-11" d="M33.44,33.07l-7.06,7.06s-.12.05-.16,0l-7.06-7.06s-.05-.12,0-.17c1.84-1.81,4.36-2.93,7.14-2.93s5.31,1.12,7.14,2.93c.05.05.05.12,0,.17Z"/>
    <path class="cls-3" d="M32.24,12s.04.11-.01.14c-1.67,1.2-3.72,1.91-5.93,1.91s-4.26-.71-5.93-1.91c-.05-.03-.05-.1-.01-.14l5.88-5.88s.1-.04.13,0l5.88,5.88Z"/>
    <path class="cls-8" d="M14.25,23.13c0,1.38-.56,2.62-1.47,3.52-.01.01-.03.01-.04,0l-1.35-1.35s0-.03,0-.04c.55-.54.9-1.3.9-2.13s-.34-1.59-.9-2.13c-.01-.01-.01-.03,0-.04l1.35-1.35s.03-.01.04,0c.91.9,1.47,2.15,1.47,3.52Z"/>
    <path class="cls-8" d="M17.95,23.13c0,2.4-.98,4.57-2.56,6.14-.01.01-.03.01-.04,0l-1.35-1.35s-.01-.03,0-.04c1.22-1.21,1.98-2.9,1.98-4.75s-.76-3.54-1.98-4.75c-.01-.01-.01-.03,0-.04l1.35-1.35s.03-.01.04,0c1.58,1.57,2.56,3.74,2.56,6.14Z"/>
    <path class="cls-8" d="M21.67,23.13c0,3.42-1.4,6.52-3.65,8.77-.01.01-.03.01-.04,0l-1.35-1.35s-.01-.03,0-.04c1.9-1.89,3.07-4.5,3.07-7.38s-1.17-5.49-3.07-7.38c-.01-.01-.01-.03,0-.04l1.35-1.35s.03-.01.04,0c2.25,2.24,3.65,5.35,3.65,8.77Z"/>
    <path class="cls-10" d="M43.34,23.1s.02.06,0,.08l-2.14,2.14-3.8,3.8s-.06.02-.08,0l-2.11-2.11s-.02-.06,0-.08l2.11-2.11s.01-.09-.04-.09h-4.32s-.03,0-.04-.02l-1.55-1.55s-.02-.06,0-.08l1.44-1.44s.02-.02.04-.02h4.53s.07-.06.04-.09l-2.21-2.21s-.02-.06,0-.08l2.11-2.11s.06-.02.08,0l3.8,3.8,2.14,2.14Z"/>
    <path class="cls-10" d="M25.55,16.8c.02.17,0,.34-.05.5-.16.47-.63.8-1.18.75-.51-.05-.93-.47-.99-.97-.07-.55.27-1.03.74-1.19.13-.05.28-.07.43-.06.53.03.98.45,1.04.98Z"/>
    <path class="cls-10" d="M25.53,21.8c.15.79-.53,1.46-1.31,1.32-.44-.08-.8-.44-.88-.88-.15-.79.53-1.46,1.32-1.31.44.08.79.44.88.88Z"/>
    <path class="cls-10" d="M30.65,19.39c.15.79-.53,1.46-1.31,1.31-.44-.08-.79-.44-.88-.88-.15-.79.53-1.47,1.32-1.32.44.08.79.44.88.88Z"/>
    <path class="cls-10" d="M29.41,26.1c.15.79-.52,1.47-1.31,1.32-.44-.08-.8-.44-.88-.88-.15-.79.53-1.47,1.31-1.32.44.08.79.44.88.88Z"/>
    <path class="cls-8" d="M11.12,23.13c0,.51-.21.98-.56,1.31-.01,0-.03,0-.04,0l-1.31-1.31.12-.12,1.19-1.19s.03-.01.04,0c.34.33.56.8.56,1.31Z"/>
  </g>
  <text class="cls-9" transform="translate(47.64 28.13)"><tspan class="cls-1" x="0" y="0">OSM</tspan><tspan class="cls-7" x="37.2" y="0"> </tspan><tspan class="cls-4" x="40.44" y="0">A</tspan><tspan class="cls-6" x="52.73" y="0">r</tspan><tspan class="cls-4" x="59.19" y="0">chi</tspan><tspan class="cls-5" x="83.6" y="0">v</tspan><tspan class="cls-4" x="92.69" y="0">e</tspan></text>
</svg>